<svg viewBox="0 0 16 16" xmlns="http://www.w3.org/2000/svg" xmlns:xlink="http://www.w3.org/1999/xlink" width="16.000000" height="16.000000" fill="none">
	<rect id="Icon" width="16.000000" height="16.000000" x="0.000000" y="0.000000" />
	<path id="Vector" d="M5.33335 14.6666C4.96516 14.6666 4.66669 14.3681 4.66669 13.9999C4.66669 13.6317 4.96516 13.3333 5.33335 13.3333C5.70154 13.3333 6.00002 13.6317 6.00002 13.9999C6.00002 14.3681 5.70154 14.6666 5.33335 14.6666Z" stroke="rgb(255,255,255)" stroke-linecap="round" stroke-linejoin="round" stroke-width="1.333333" />
	<path id="Vector" d="M12.6667 14.6666C12.2985 14.6666 12 14.3681 12 13.9999C12 13.6317 12.2985 13.3333 12.6667 13.3333C13.0349 13.3333 13.3333 13.6317 13.3333 13.9999C13.3333 14.3681 13.0349 14.6666 12.6667 14.6666Z" stroke="rgb(255,255,255)" stroke-linecap="round" stroke-linejoin="round" stroke-width="1.333333" />
	<path id="Vector" d="M1.3667 1.3667L2.70003 1.3667L4.47337 9.6467C4.53842 9.94994 4.70715 10.221 4.95051 10.4133C5.19387 10.6055 5.49664 10.7069 5.8067 10.7L12.3267 10.7C12.6301 10.6995 12.9244 10.5956 13.1607 10.4053C13.3971 10.215 13.5615 9.94972 13.6267 9.65337L14.7267 4.70003L3.41337 4.70003" fill-rule="nonzero" stroke="rgb(255,255,255)" stroke-linecap="round" stroke-linejoin="round" stroke-width="1.333333" />
</svg>
