<svg viewBox="0 0 20 20" xmlns="http://www.w3.org/2000/svg" xmlns:xlink="http://www.w3.org/1999/xlink" width="20.000000" height="20.000000" fill="none">
	<rect id="Icon" width="20.000000" height="20.000000" x="0.000000" y="0.000000" />
	<path id="Vector" d="M2.47346 5.31979C2.99891 4.55569 3.74378 3.96896 4.60969 3.63707C5.4756 3.30519 6.42182 3.24378 7.32336 3.46094C8.22491 3.67811 9.03937 4.16364 9.65919 4.85341C9.70284 4.90009 9.75562 4.9373 9.81425 4.96274C9.87288 4.98818 9.93611 5.00131 10 5.00131C10.0639 5.00131 10.1272 4.98818 10.1858 4.96274C10.2444 4.9373 10.2972 4.90009 10.3409 4.85341C10.9587 4.15916 11.7734 3.66955 12.6764 3.44974C13.5794 3.22994 14.5279 3.29036 15.3958 3.62298C16.2636 3.95559 17.0095 4.54462 17.5343 5.31166C18.0591 6.0787 18.3378 6.98737 18.3334 7.91674C18.3334 9.82507 17.0834 11.2501 15.8334 12.5001L11.2567 16.9276C11.1014 17.1059 10.91 17.2492 10.6951 17.3478C10.4802 17.4465 10.2467 17.4983 10.0103 17.4998C9.7738 17.5013 9.53973 17.4524 9.32359 17.3565C9.10746 17.2606 8.91421 17.1198 8.75669 16.9434L4.16669 12.5001C2.91669 11.2501 1.66669 9.83341 1.66669 7.91674C1.6667 6.98941 1.94801 6.08389 2.47346 5.31979Z" fill-rule="nonzero" stroke="rgb(0,0,0)" stroke-opacity="0.699999988" stroke-linecap="round" stroke-linejoin="round" stroke-width="1.666667" />
</svg>
