<svg width="20" height="20" viewBox="0 0 20 20" fill="none" xmlns="http://www.w3.org/2000/svg">
<path d="M16.6667 8.33341C16.6667 12.4942 12.0508 16.8276 10.5008 18.1659C10.3564 18.2745 10.1807 18.3332 9.99999 18.3332C9.81933 18.3332 9.64356 18.2745 9.49916 18.1659C7.94916 16.8276 3.33333 12.4942 3.33333 8.33341C3.33333 6.5653 4.03571 4.86961 5.28595 3.61937C6.53619 2.36913 8.23188 1.66675 9.99999 1.66675C11.7681 1.66675 13.4638 2.36913 14.714 3.61937C15.9643 4.86961 16.6667 6.5653 16.6667 8.33341Z" stroke="#8B1F1F" stroke-width="1.66667" stroke-linecap="round" stroke-linejoin="round"/>
<path d="M10 10.8333C11.3807 10.8333 12.5 9.71396 12.5 8.33325C12.5 6.95254 11.3807 5.83325 10 5.83325C8.61929 5.83325 7.5 6.95254 7.5 8.33325C7.5 9.71396 8.61929 10.8333 10 10.8333Z" stroke="#8B1F1F" stroke-width="1.66667" stroke-linecap="round" stroke-linejoin="round"/>
</svg>
