<svg viewBox="0 0 96.5875 24" xmlns="http://www.w3.org/2000/svg" xmlns:xlink="http://www.w3.org/1999/xlink" width="96.587524" height="24.000000" fill="none" customFrame="#000000">
	<defs>
		<clipPath id="clipPath_0">
			<rect width="43.000000" height="20.800001" x="0.000000" y="1.599998" fill="rgb(255,255,255)" />
		</clipPath>
	</defs>
	<rect id="Button" width="96.587502" height="24.000000" x="0.000000" y="0.000000" />
	<g id="Text" customFrame="url(#clipPath_0)">
		<rect id="Text" width="43.000000" height="20.800001" x="0.000000" y="1.599998" />
		<path id="OHMY" d="M5.53775 19.36C4.20442 19.36 3.13775 18.976 2.33775 18.208C1.54842 17.4293 1.15375 16.2987 1.15375 14.816L1.15375 12.256C1.15375 10.7733 1.54842 9.648 2.33775 8.88C3.13775 8.10133 4.20442 7.712 5.53775 7.712C6.88175 7.712 7.94842 8.10133 8.73775 8.88C9.53775 9.648 9.93775 10.7733 9.93775 12.256L9.93775 14.816C9.93775 16.2987 9.53775 17.4293 8.73775 18.208C7.94842 18.976 6.88175 19.36 5.53775 19.36ZM5.53775 18.16C6.50842 18.16 7.26042 17.872 7.79375 17.296C8.32708 16.7093 8.59375 15.8987 8.59375 14.864L8.59375 12.208C8.59375 11.1733 8.32708 10.368 7.79375 9.792C7.26042 9.20533 6.50842 8.912 5.53775 8.912C4.57775 8.912 3.83108 9.20533 3.29775 9.792C2.76442 10.368 2.49775 11.1733 2.49775 12.208L2.49775 14.864C2.49775 15.8987 2.76442 16.7093 3.29775 17.296C3.83108 17.872 4.57775 18.16 5.53775 18.16ZM11.7769 19.136L11.7769 7.936L13.1209 7.936L13.1209 12.912L18.3689 12.912L18.3689 7.936L19.7129 7.936L19.7129 19.136L18.3689 19.136L18.3689 14.128L13.1209 14.128L13.1209 19.136L11.7769 19.136ZM21.8769 19.136L21.8769 7.936L24.4369 7.936L27.4129 18.288L27.6209 18.288L30.5969 7.936L33.1569 7.936L33.1569 19.136L31.8609 19.136L31.8609 8.816L31.6369 8.816L28.6769 19.136L26.3569 19.136L23.3969 8.816L23.1729 8.816L23.1729 19.136L21.8769 19.136ZM38.2486 19.136L38.2486 14.864L34.2646 7.936L35.8006 7.936L38.8086 13.312L39.0326 13.312L42.0406 7.936L43.5766 7.936L39.5926 14.864L39.5926 19.136L38.2486 19.136Z" fill="rgb(139,31,31)" fill-rule="nonzero" />
	</g>
	<path id="candle" d="M50.2952 17.36C49.5379 17.36 48.8552 17.2 48.2472 16.88C47.6499 16.5493 47.1752 16.08 46.8232 15.472C46.4819 14.864 46.3112 14.144 46.3112 13.312L46.3112 13.136C46.3112 12.2933 46.4819 11.5733 46.8232 10.976C47.1752 10.368 47.6499 9.904 48.2472 9.584C48.8552 9.25333 49.5379 9.088 50.2952 9.088C51.0419 9.088 51.6765 9.22666 52.1992 9.504C52.7325 9.78133 53.1485 10.1493 53.4472 10.608C53.7565 11.0667 53.9539 11.5573 54.0392 12.08L52.8072 12.336C52.7539 11.952 52.6259 11.6 52.4232 11.28C52.2312 10.96 51.9592 10.704 51.6072 10.512C51.2552 10.32 50.8232 10.224 50.3112 10.224C49.7885 10.224 49.3192 10.3413 48.9032 10.576C48.4979 10.8107 48.1725 11.1467 47.9272 11.584C47.6925 12.0213 47.5752 12.544 47.5752 13.152L47.5752 13.296C47.5752 13.904 47.6925 14.4267 47.9272 14.864C48.1725 15.3013 48.4979 15.6373 48.9032 15.872C49.3192 16.1067 49.7885 16.224 50.3112 16.224C51.0899 16.224 51.6819 16.0213 52.0872 15.616C52.5032 15.2107 52.7592 14.7093 52.8552 14.112L54.1032 14.384C53.9859 14.896 53.7725 15.3813 53.4632 15.84C53.1539 16.2987 52.7325 16.6667 52.1992 16.944C51.6765 17.2213 51.0419 17.36 50.2952 17.36ZM58.2577 17.36C57.7137 17.36 57.2177 17.264 56.7697 17.072C56.3217 16.88 55.9697 16.6027 55.7137 16.24C55.4577 15.8773 55.3297 15.4347 55.3297 14.912C55.3297 14.3787 55.4577 13.9413 55.7137 13.6C55.9697 13.248 56.3217 12.9867 56.7697 12.816C57.2177 12.6347 57.719 12.544 58.2737 12.544L60.9137 12.544L60.9137 11.968C60.9137 11.4133 60.7484 10.976 60.4177 10.656C60.0977 10.336 59.6177 10.176 58.9777 10.176C58.3484 10.176 57.8577 10.3307 57.5057 10.64C57.1537 10.9387 56.9137 11.344 56.7857 11.856L55.6017 11.472C55.7297 11.0347 55.9324 10.64 56.2097 10.288C56.487 9.92533 56.855 9.63733 57.3137 9.424C57.783 9.2 58.343 9.088 58.9937 9.088C59.9964 9.088 60.775 9.34933 61.3297 9.872C61.8844 10.384 62.1617 11.1093 62.1617 12.048L62.1617 15.584C62.1617 15.904 62.311 16.064 62.6097 16.064L63.3297 16.064L63.3297 17.136L62.2257 17.136C61.8737 17.136 61.591 17.04 61.3777 16.848C61.1644 16.6453 61.0577 16.3787 61.0577 16.048L61.0577 15.968L60.8657 15.968C60.7484 16.1707 60.5884 16.384 60.3857 16.608C60.1937 16.8213 59.927 16.9973 59.5857 17.136C59.2444 17.2853 58.8017 17.36 58.2577 17.36ZM58.4017 16.272C59.1484 16.272 59.751 16.0533 60.2097 15.616C60.679 15.168 60.9137 14.544 60.9137 13.744L60.9137 13.568L58.3217 13.568C57.8204 13.568 57.4044 13.68 57.0737 13.904C56.7537 14.1173 56.5937 14.4427 56.5937 14.88C56.5937 15.3173 56.759 15.6587 57.0897 15.904C57.431 16.1493 57.8684 16.272 58.4017 16.272ZM64.6608 17.136L64.6608 9.312L65.8928 9.312L65.8928 10.64L66.1168 10.64C66.2875 10.2667 66.5755 9.93066 66.9808 9.632C67.3968 9.32266 68.0048 9.168 68.8048 9.168C69.3915 9.168 69.9141 9.29066 70.3728 9.536C70.8421 9.78133 71.2155 10.144 71.4928 10.624C71.7701 11.104 71.9088 11.696 71.9088 12.4L71.9088 17.136L70.6448 17.136L70.6448 12.496C70.6448 11.7173 70.4475 11.152 70.0528 10.8C69.6688 10.448 69.1461 10.272 68.4848 10.272C67.7275 10.272 67.1088 10.5173 66.6288 11.008C66.1595 11.4987 65.9248 12.2293 65.9248 13.2L65.9248 17.136L64.6608 17.136ZM77.3853 17.36C76.7133 17.36 76.0946 17.2 75.5293 16.88C74.964 16.56 74.516 16.096 74.1853 15.488C73.8546 14.88 73.6893 14.16 73.6893 13.328L73.6893 13.12C73.6893 12.288 73.8546 11.5733 74.1853 10.976C74.516 10.368 74.9586 9.904 75.5133 9.584C76.0786 9.25333 76.7026 9.088 77.3853 9.088C77.9293 9.088 78.388 9.16266 78.7613 9.312C79.1453 9.45066 79.4547 9.632 79.6893 9.856C79.924 10.0693 80.1053 10.2987 80.2333 10.544L80.4573 10.544L80.4573 5.936L81.7213 5.936L81.7213 17.136L80.4893 17.136L80.4893 15.84L80.2653 15.84C80.052 16.2347 79.7213 16.5867 79.2733 16.896C78.8253 17.2053 78.196 17.36 77.3853 17.36ZM77.7213 16.24C78.532 16.24 79.188 15.984 79.6893 15.472C80.2013 14.9493 80.4573 14.224 80.4573 13.296L80.4573 13.152C80.4573 12.224 80.2013 11.504 79.6893 10.992C79.188 10.4693 78.532 10.208 77.7213 10.208C76.9213 10.208 76.26 10.4693 75.7373 10.992C75.2253 11.504 74.9693 12.224 74.9693 13.152L74.9693 13.296C74.9693 14.224 75.2253 14.9493 75.7373 15.472C76.26 15.984 76.9213 16.24 77.7213 16.24ZM83.9702 17.136L83.9702 5.936L85.2342 5.936L85.2342 17.136L83.9702 17.136ZM91.0761 17.36C90.2867 17.36 89.5934 17.1947 88.9961 16.864C88.3987 16.5227 87.9347 16.048 87.6041 15.44C87.2734 14.832 87.1081 14.128 87.1081 13.328L87.1081 13.136C87.1081 12.3253 87.2734 11.616 87.6041 11.008C87.9347 10.4 88.3934 9.93066 88.9801 9.6C89.5667 9.25866 90.2387 9.088 90.9961 9.088C91.7321 9.088 92.3827 9.248 92.9481 9.568C93.5134 9.87733 93.9561 10.3253 94.2761 10.912C94.5961 11.4987 94.7561 12.1867 94.7561 12.976L94.7561 13.552L88.3721 13.552C88.4041 14.3947 88.6761 15.056 89.1881 15.536C89.7001 16.0053 90.3401 16.24 91.1081 16.24C91.7801 16.24 92.2974 16.0853 92.6601 15.776C93.0227 15.4667 93.3001 15.0987 93.4921 14.672L94.5801 15.2C94.4201 15.5307 94.1961 15.8613 93.9081 16.192C93.6307 16.5227 93.2627 16.8 92.8041 17.024C92.3561 17.248 91.7801 17.36 91.0761 17.36ZM88.3881 12.512L93.4761 12.512C93.4334 11.7867 93.1827 11.2213 92.7241 10.816C92.2761 10.4107 91.7001 10.208 90.9961 10.208C90.2814 10.208 89.6947 10.4107 89.2361 10.816C88.7774 11.2213 88.4947 11.7867 88.3881 12.512Z" fill="rgb(26,26,26)" fill-rule="nonzero" />
</svg>
