<svg width="20" height="20" viewBox="0 0 20 20" fill="none" xmlns="http://www.w3.org/2000/svg">
<g clip-path="url(#clip0_66_162)">
<path d="M11.5267 13.8067C11.6988 13.8858 11.8927 13.9038 12.0764 13.8579C12.2602 13.8121 12.4228 13.7049 12.5375 13.5542L12.8333 13.1667C12.9886 12.9598 13.1899 12.7917 13.4213 12.676C13.6527 12.5603 13.9079 12.5001 14.1667 12.5001H16.6667C17.1087 12.5001 17.5326 12.6757 17.8452 12.9882C18.1577 13.3008 18.3333 13.7247 18.3333 14.1667V16.6667C18.3333 17.1088 18.1577 17.5327 17.8452 17.8453C17.5326 18.1578 17.1087 18.3334 16.6667 18.3334C12.6884 18.3334 8.87312 16.7531 6.06007 13.94C3.24702 11.127 1.66667 7.31166 1.66667 3.33341C1.66667 2.89139 1.84227 2.46746 2.15483 2.1549C2.46739 1.84234 2.89131 1.66675 3.33334 1.66675H5.83334C6.27537 1.66675 6.69929 1.84234 7.01185 2.1549C7.32441 2.46746 7.5 2.89139 7.5 3.33341V5.83341C7.5 6.09216 7.43976 6.34734 7.32405 6.57877C7.20834 6.8102 7.04033 7.0115 6.83334 7.16675L6.44334 7.45925C6.29035 7.57606 6.18252 7.74224 6.13816 7.92954C6.09381 8.11684 6.11566 8.31373 6.20001 8.48675C7.33891 10.8 9.21203 12.6707 11.5267 13.8067Z" stroke="#8B1F1F" stroke-width="1.66667" stroke-linecap="round" stroke-linejoin="round"/>
</g>
<defs>
<clipPath id="clip0_66_162">
<rect width="20" height="20" fill="white"/>
</clipPath>
</defs>
</svg>
