<svg width="64" height="64" viewBox="0 0 64 64" fill="none" xmlns="http://www.w3.org/2000/svg">
<path d="M0 32C0 14.3269 14.3269 0 32 0C49.6731 0 64 14.3269 64 32C64 49.6731 49.6731 64 32 64C14.3269 64 0 49.6731 0 32Z" fill="#8B1F1F"/>
<path d="M35.3826 37.6L34.0066 34.064H29.4786L28.1186 37.6H26.6626L31.1266 26.128H32.4226L36.8706 37.6H35.3826ZM32.2946 29.328C32.2626 29.2427 32.2093 29.088 32.1346 28.864C32.0599 28.64 31.9853 28.4107 31.9106 28.176C31.8466 27.9307 31.7933 27.744 31.7506 27.616C31.6973 27.8293 31.6386 28.048 31.5746 28.272C31.5213 28.4853 31.4626 28.6827 31.3986 28.864C31.3453 29.0453 31.2973 29.2 31.2546 29.328L29.9586 32.784H33.5746L32.2946 29.328Z" fill="white"/>
</svg>
